<mxfile host="app.diagrams.net" agent="Mozilla/5.0 (Windows NT 10.0; Win64; x64) AppleWebKit/537.36 (KHTML, like Gecko) Chrome/131.0.0.0 Safari/537.36 Edg/131.0.0.0" version="26.0.1">
  <diagram name="Página-1" id="gDnCJHQup_omuLS1-H3w">
    <mxGraphModel dx="1434" dy="1953" grid="1" gridSize="10" guides="1" tooltips="1" connect="1" arrows="1" fold="1" page="1" pageScale="1" pageWidth="827" pageHeight="1169" math="0" shadow="0">
      <root>
        <mxCell id="0" />
        <mxCell id="1" parent="0" />
        <mxCell id="3" value="Transformação dos dados&#xa; com Melt + Pivot" style="rounded=1;arcSize=40;strokeWidth=2;labelBackgroundColor=none;fillColor=#B2C9AB;strokeColor=#788AA3;fontColor=#46495D;" parent="1" vertex="1">
          <mxGeometry x="414" y="-220" width="170" height="54" as="geometry" />
        </mxCell>
        <mxCell id="13" value="" style="curved=1;startArrow=circle;startFill=0;endArrow=block;exitX=0.5;exitY=1;entryX=0.5;entryY=0;exitDx=0;exitDy=0;rounded=1;labelBackgroundColor=none;strokeColor=#788AA3;fontColor=default;entryDx=0;entryDy=0;" parent="1" source="gS9HHy2FDOxm2EG-XcD2-26" target="3" edge="1">
          <mxGeometry relative="1" as="geometry">
            <Array as="points" />
            <mxPoint x="-25.000000000000455" y="191" as="sourcePoint" />
          </mxGeometry>
        </mxCell>
        <mxCell id="gS9HHy2FDOxm2EG-XcD2-26" value="&lt;font style=&quot;font-size: 16px;&quot;&gt;&lt;b&gt;WDI&lt;/b&gt;&lt;/font&gt;" style="shape=parallelogram;html=1;strokeWidth=2;perimeter=parallelogramPerimeter;whiteSpace=wrap;rounded=1;arcSize=12;size=0.23;labelBackgroundColor=none;fillColor=#B2C9AB;strokeColor=#788AA3;fontColor=#46495D;" parent="1" vertex="1">
          <mxGeometry x="449" y="-360" width="100" height="100" as="geometry" />
        </mxCell>
        <mxCell id="gS9HHy2FDOxm2EG-XcD2-28" value="" style="curved=1;startArrow=none;endArrow=block;exitX=0.5;exitY=1;entryX=0.5;entryY=0;rounded=1;labelBackgroundColor=none;strokeColor=#788AA3;fontColor=default;exitDx=0;exitDy=0;entryDx=0;entryDy=0;" parent="1" source="3" target="gS9HHy2FDOxm2EG-XcD2-27" edge="1">
          <mxGeometry relative="1" as="geometry">
            <Array as="points" />
            <mxPoint x="290" y="191" as="sourcePoint" />
            <mxPoint x="640" y="187" as="targetPoint" />
          </mxGeometry>
        </mxCell>
        <mxCell id="gS9HHy2FDOxm2EG-XcD2-27" value="&lt;font style=&quot;font-size: 16px;&quot;&gt;&lt;b&gt;WDI&lt;/b&gt;&lt;/font&gt;&lt;div&gt;&lt;font style=&quot;font-size: 16px;&quot;&gt;&lt;b&gt;Transformada&lt;/b&gt;&lt;/font&gt;&lt;/div&gt;" style="shape=parallelogram;html=1;strokeWidth=2;perimeter=parallelogramPerimeter;whiteSpace=wrap;rounded=1;arcSize=12;size=0.23;labelBackgroundColor=none;fillColor=#B2C9AB;strokeColor=#788AA3;fontColor=#46495D;" parent="1" vertex="1">
          <mxGeometry x="419" y="-140" width="160" height="80" as="geometry" />
        </mxCell>
        <mxCell id="8" value="Modelagem&#xa;Random Forest" style="rhombus;strokeWidth=2;whiteSpace=wrap;rounded=1;labelBackgroundColor=none;fillColor=#B2C9AB;strokeColor=#788AA3;fontColor=#46495D;" parent="1" vertex="1">
          <mxGeometry x="443" y="424" width="127" height="127" as="geometry" />
        </mxCell>
        <mxCell id="14" value="" style="curved=1;startArrow=none;endArrow=block;exitX=0.5;exitY=1;entryX=0.5;entryY=0;rounded=1;labelBackgroundColor=none;strokeColor=#788AA3;fontColor=default;entryDx=0;entryDy=0;exitDx=0;exitDy=0;" parent="1" source="gS9HHy2FDOxm2EG-XcD2-27" target="gS9HHy2FDOxm2EG-XcD2-36" edge="1">
          <mxGeometry relative="1" as="geometry">
            <Array as="points" />
          </mxGeometry>
        </mxCell>
        <mxCell id="gS9HHy2FDOxm2EG-XcD2-29" value="" style="endArrow=none;dashed=1;html=1;rounded=1;fillColor=#B2C9AB;strokeColor=#788AA3;labelBackgroundColor=none;fontColor=default;strokeWidth=6;" parent="1" edge="1">
          <mxGeometry width="50" height="50" relative="1" as="geometry">
            <mxPoint x="930" y="-80" as="sourcePoint" />
            <mxPoint x="660" y="-80" as="targetPoint" />
          </mxGeometry>
        </mxCell>
        <mxCell id="gS9HHy2FDOxm2EG-XcD2-32" value="" style="sketch=0;aspect=fixed;pointerEvents=1;shadow=0;dashed=0;html=1;strokeColor=none;labelPosition=center;verticalLabelPosition=bottom;verticalAlign=top;align=center;fillColor=#B2C9AB;shape=mxgraph.azure.script_file;rounded=1;labelBackgroundColor=none;fontColor=#46495D;" parent="1" vertex="1">
          <mxGeometry x="710" y="-260" width="47" height="50" as="geometry" />
        </mxCell>
        <mxCell id="gS9HHy2FDOxm2EG-XcD2-33" value="gera_dataframes.py (Apêndice A)" style="text;html=1;align=center;verticalAlign=middle;whiteSpace=wrap;rounded=1;labelBackgroundColor=none;fontColor=#46495D;" parent="1" vertex="1">
          <mxGeometry x="777" y="-250" width="100" height="30" as="geometry" />
        </mxCell>
        <mxCell id="gS9HHy2FDOxm2EG-XcD2-34" value="" style="sketch=0;aspect=fixed;pointerEvents=1;shadow=0;dashed=0;html=1;strokeColor=none;labelPosition=center;verticalLabelPosition=bottom;verticalAlign=top;align=center;fillColor=#B2C9AB;shape=mxgraph.azure.script_file;rounded=1;labelBackgroundColor=none;fontColor=#46495D;" parent="1" vertex="1">
          <mxGeometry x="710" y="-20" width="47" height="50" as="geometry" />
        </mxCell>
        <mxCell id="gS9HHy2FDOxm2EG-XcD2-35" value="pre_processamento.py&lt;div&gt;&lt;span style=&quot;background-color: transparent; color: light-dark(rgb(70, 73, 93), rgb(170, 173, 190));&quot;&gt;(Apêndice B)&lt;/span&gt;&lt;/div&gt;" style="text;html=1;align=center;verticalAlign=middle;whiteSpace=wrap;rounded=1;labelBackgroundColor=none;fontColor=#46495D;" parent="1" vertex="1">
          <mxGeometry x="777" y="-10" width="100" height="30" as="geometry" />
        </mxCell>
        <mxCell id="gS9HHy2FDOxm2EG-XcD2-36" value="Limpeza de dados&#xa;(remoção de valores vazios)" style="rounded=1;arcSize=40;strokeWidth=2;labelBackgroundColor=none;fillColor=#B2C9AB;strokeColor=#788AA3;fontColor=#46495D;" parent="1" vertex="1">
          <mxGeometry x="414" y="-30" width="170" height="54" as="geometry" />
        </mxCell>
        <mxCell id="gS9HHy2FDOxm2EG-XcD2-40" style="edgeStyle=orthogonalEdgeStyle;rounded=0;orthogonalLoop=1;jettySize=auto;html=1;exitX=0.5;exitY=1;exitDx=0;exitDy=0;strokeColor=#788AA3;fontColor=#46495D;fillColor=#B2C9AB;" parent="1" source="gS9HHy2FDOxm2EG-XcD2-36" target="u0iPUzsAChnTMV-BkTCh-14" edge="1">
          <mxGeometry relative="1" as="geometry" />
        </mxCell>
        <mxCell id="gS9HHy2FDOxm2EG-XcD2-37" value="Inferência (imputação)&#xa;de valores vazios" style="rounded=1;arcSize=40;strokeWidth=2;labelBackgroundColor=none;fillColor=#B2C9AB;strokeColor=#788AA3;fontColor=#46495D;" parent="1" vertex="1">
          <mxGeometry x="290" y="334" width="170" height="54" as="geometry" />
        </mxCell>
        <mxCell id="gS9HHy2FDOxm2EG-XcD2-38" value="Separação entre atributos&#xa;e rótulo" style="rounded=1;arcSize=40;strokeWidth=2;labelBackgroundColor=none;fillColor=#B2C9AB;strokeColor=#788AA3;fontColor=#46495D;" parent="1" vertex="1">
          <mxGeometry x="414" y="160" width="170" height="54" as="geometry" />
        </mxCell>
        <mxCell id="gS9HHy2FDOxm2EG-XcD2-41" value="&lt;span style=&quot;font-size: 16px;&quot;&gt;&lt;b&gt;X&lt;/b&gt;&lt;/span&gt;" style="shape=parallelogram;html=1;strokeWidth=2;perimeter=parallelogramPerimeter;whiteSpace=wrap;rounded=1;arcSize=12;size=0.23;labelBackgroundColor=none;fillColor=#B2C9AB;strokeColor=#788AA3;fontColor=#46495D;" parent="1" vertex="1">
          <mxGeometry x="309" y="270" width="140" height="40" as="geometry" />
        </mxCell>
        <mxCell id="gS9HHy2FDOxm2EG-XcD2-43" value="&lt;span style=&quot;font-size: 16px;&quot;&gt;&lt;b&gt;y&lt;/b&gt;&lt;/span&gt;" style="shape=parallelogram;html=1;strokeWidth=2;perimeter=parallelogramPerimeter;whiteSpace=wrap;rounded=1;arcSize=12;size=0.23;labelBackgroundColor=none;fillColor=#B2C9AB;strokeColor=#788AA3;fontColor=#46495D;" parent="1" vertex="1">
          <mxGeometry x="540" y="270" width="140" height="40" as="geometry" />
        </mxCell>
        <mxCell id="gS9HHy2FDOxm2EG-XcD2-44" value="" style="curved=1;startArrow=none;endArrow=block;entryX=0.613;entryY=-0.011;rounded=1;labelBackgroundColor=none;strokeColor=#788AA3;fontColor=default;entryDx=0;entryDy=0;exitX=0.514;exitY=1.008;exitDx=0;exitDy=0;exitPerimeter=0;entryPerimeter=0;" parent="1" source="gS9HHy2FDOxm2EG-XcD2-38" target="gS9HHy2FDOxm2EG-XcD2-41" edge="1">
          <mxGeometry relative="1" as="geometry">
            <Array as="points" />
            <mxPoint x="500" y="220" as="sourcePoint" />
            <mxPoint x="380" y="271" as="targetPoint" />
          </mxGeometry>
        </mxCell>
        <mxCell id="gS9HHy2FDOxm2EG-XcD2-46" value="" style="curved=1;startArrow=none;endArrow=block;entryX=0.53;entryY=-0.022;rounded=1;labelBackgroundColor=none;strokeColor=#788AA3;fontColor=default;entryDx=0;entryDy=0;exitX=0.5;exitY=1;exitDx=0;exitDy=0;entryPerimeter=0;" parent="1" source="gS9HHy2FDOxm2EG-XcD2-38" target="gS9HHy2FDOxm2EG-XcD2-43" edge="1">
          <mxGeometry relative="1" as="geometry">
            <Array as="points" />
            <mxPoint x="499" y="220" as="sourcePoint" />
            <mxPoint x="836" y="215" as="targetPoint" />
          </mxGeometry>
        </mxCell>
        <mxCell id="gS9HHy2FDOxm2EG-XcD2-47" value="" style="curved=1;startArrow=none;endArrow=block;exitX=0.449;exitY=1.013;entryX=0.478;entryY=-0.011;rounded=1;labelBackgroundColor=none;strokeColor=#788AA3;fontColor=default;entryDx=0;entryDy=0;exitDx=0;exitDy=0;entryPerimeter=0;exitPerimeter=0;" parent="1" source="gS9HHy2FDOxm2EG-XcD2-41" target="gS9HHy2FDOxm2EG-XcD2-37" edge="1">
          <mxGeometry relative="1" as="geometry">
            <Array as="points" />
            <mxPoint x="740" y="271" as="sourcePoint" />
            <mxPoint x="836" y="215" as="targetPoint" />
          </mxGeometry>
        </mxCell>
        <mxCell id="gS9HHy2FDOxm2EG-XcD2-48" value="" style="curved=1;startArrow=none;endArrow=block;exitX=1;exitY=0.5;rounded=1;labelBackgroundColor=none;strokeColor=#788AA3;fontColor=default;exitDx=0;exitDy=0;entryX=0.13;entryY=0.361;entryDx=0;entryDy=0;entryPerimeter=0;" parent="1" source="gS9HHy2FDOxm2EG-XcD2-37" target="8" edge="1">
          <mxGeometry relative="1" as="geometry">
            <Array as="points" />
            <mxPoint x="944" y="189" as="sourcePoint" />
            <mxPoint x="461" y="464" as="targetPoint" />
          </mxGeometry>
        </mxCell>
        <mxCell id="gS9HHy2FDOxm2EG-XcD2-49" value="" style="curved=0;startArrow=none;endArrow=block;exitX=0.5;exitY=1;rounded=0;labelBackgroundColor=none;strokeColor=#788AA3;fontColor=default;exitDx=0;exitDy=0;entryX=0.843;entryY=0.315;entryDx=0;entryDy=0;entryPerimeter=0;" parent="1" source="gS9HHy2FDOxm2EG-XcD2-43" target="8" edge="1">
          <mxGeometry relative="1" as="geometry">
            <Array as="points">
              <mxPoint x="610" y="380" />
              <mxPoint x="550" y="380" />
            </Array>
            <mxPoint x="954" y="225" as="sourcePoint" />
            <mxPoint x="1240" y="260" as="targetPoint" />
          </mxGeometry>
        </mxCell>
        <mxCell id="u0iPUzsAChnTMV-BkTCh-14" value="&lt;font style=&quot;font-size: 16px;&quot;&gt;&lt;b&gt;WDI&lt;/b&gt;&lt;/font&gt;&lt;div&gt;&lt;span style=&quot;font-size: 16px;&quot;&gt;&lt;b&gt;PreProcessada&lt;/b&gt;&lt;/span&gt;&lt;/div&gt;" style="shape=parallelogram;html=1;strokeWidth=2;perimeter=parallelogramPerimeter;whiteSpace=wrap;rounded=1;arcSize=12;size=0.23;labelBackgroundColor=none;fillColor=#B2C9AB;strokeColor=#788AA3;fontColor=#46495D;" vertex="1" parent="1">
          <mxGeometry x="404" y="60" width="190" height="60" as="geometry" />
        </mxCell>
        <mxCell id="u0iPUzsAChnTMV-BkTCh-15" value="" style="curved=1;startArrow=none;endArrow=block;exitX=0.5;exitY=1;entryX=0.5;entryY=0;rounded=1;labelBackgroundColor=none;strokeColor=#788AA3;fontColor=default;entryDx=0;entryDy=0;exitDx=0;exitDy=0;" edge="1" parent="1" source="u0iPUzsAChnTMV-BkTCh-14" target="gS9HHy2FDOxm2EG-XcD2-38">
          <mxGeometry relative="1" as="geometry">
            <Array as="points" />
            <mxPoint x="610" y="260" as="targetPoint" />
          </mxGeometry>
        </mxCell>
        <mxCell id="u0iPUzsAChnTMV-BkTCh-16" value="" style="endArrow=none;dashed=1;html=1;rounded=1;fillColor=#B2C9AB;strokeColor=#788AA3;labelBackgroundColor=none;fontColor=default;strokeWidth=6;" edge="1" parent="1">
          <mxGeometry width="50" height="50" relative="1" as="geometry">
            <mxPoint x="930" y="90" as="sourcePoint" />
            <mxPoint x="660" y="90" as="targetPoint" />
          </mxGeometry>
        </mxCell>
        <mxCell id="u0iPUzsAChnTMV-BkTCh-17" value="" style="sketch=0;aspect=fixed;pointerEvents=1;shadow=0;dashed=0;html=1;strokeColor=none;labelPosition=center;verticalLabelPosition=bottom;verticalAlign=top;align=center;fillColor=#B2C9AB;shape=mxgraph.azure.script_file;rounded=1;labelBackgroundColor=none;fontColor=#46495D;" vertex="1" parent="1">
          <mxGeometry x="710" y="250" width="47" height="50" as="geometry" />
        </mxCell>
        <mxCell id="u0iPUzsAChnTMV-BkTCh-18" value="modelo&lt;span style=&quot;background-color: transparent; color: light-dark(rgb(70, 73, 93), rgb(170, 173, 190));&quot;&gt;.py&lt;/span&gt;&lt;div&gt;&lt;div&gt;&lt;span style=&quot;background-color: transparent; color: light-dark(rgb(70, 73, 93), rgb(170, 173, 190));&quot;&gt;(Apêndice C&lt;/span&gt;&lt;span style=&quot;background-color: transparent; color: light-dark(rgb(70, 73, 93), rgb(170, 173, 190));&quot;&gt;)&lt;/span&gt;&lt;/div&gt;&lt;/div&gt;" style="text;html=1;align=center;verticalAlign=middle;whiteSpace=wrap;rounded=1;labelBackgroundColor=none;fontColor=#46495D;" vertex="1" parent="1">
          <mxGeometry x="777" y="260" width="100" height="30" as="geometry" />
        </mxCell>
      </root>
    </mxGraphModel>
  </diagram>
</mxfile>
